
        <svg xmlns="http://www.w3.org/2000/svg" xmlns:xlink="http://www.w3.org/1999/xlink" version="1.1" width="3196.72131147541" 
        height="789.4641115881435" viewBox="0 0 3196.72131147541 789.4641115881435">
			<rect fill="#f6f6f6" width="3196.72131147541" height="789.4641115881435"/>
			<g transform="scale(9.836065573770492) translate(10, 10)">
				<defs id="SvgjsDefs1414"></defs><g id="SvgjsG1415" featureKey="tOsHRK-0" transform="matrix(1.047273241371181,0,0,1.047273241371181,-8.905410088927496,-25.836680385444293)" fill="#111111"><title xmlns="http://www.w3.org/2000/svg">big4_outline</title><path xmlns="http://www.w3.org/2000/svg" d="M32.41,35.08L13.33,54.17,32.25,73.09a2,2,0,1,1-2.83,2.83L9.09,55.58a2,2,0,0,1,0-2.83l20.5-20.5A2,2,0,0,1,32.41,35.08ZM89.08,52.59L68.75,32.25a2,2,0,0,0-2.83,2.83L84.84,54,65.75,73.09a2,2,0,1,0,2.83,2.83l20.5-20.5A2,2,0,0,0,89.08,52.59ZM61.29,24.83a2,2,0,0,0-2.62,1.05L35.82,79.42A2,2,0,1,0,39.5,81L62.35,27.46A2,2,0,0,0,61.29,24.83Z"></path></g><g id="SvgjsG1416" featureKey="dVtZHI-0" transform="matrix(1.9316206126284383,0,0,1.9316206126284383,105.00000023026712,6.810001808978502)" fill="#111111"><path d="M8.44 4.24 c-0.92 3.1066 -1.6533 5.59 -2.2 7.45 s-1.0467 3.5666 -1.5 5.12 s-0.68 2.3434 -0.68 2.37 l0.24 0.82 l0.16 0 l4.8 -15.76 l-0.82 0 z M3.74 14.68 l-2.86 -10.44 l-0.88 0 l3.34 12.28 z M11.86 4.24 l0 15.76 l0.52 0 l0 -15.76 l-0.52 0 z M20.84 4.5 l-0.000019531 -0.26 l-5.86 0 l0 0.64 l3.38 0 l0 15.12 l0.7 0 l0 -15.12 l1.8 0 c-0.02666 -0.21334 -0.03332 -0.34 -0.01998 -0.38 z M21.36 4.24 l0 0.64 l1.1 0 l0 -0.64 l-1.1 0 z M32.06 20 c2.2134 0 4.1 -0.78 5.66 -2.34 c0.77334 -0.76 1.3567 -1.58 1.75 -2.46 s0.59 -1.88 0.59 -3 c0 -2.2266 -0.78 -4.1066 -2.34 -5.64 c-1.56 -1.52 -3.4866 -2.2866 -5.78 -2.3 c-1.4133 0.01334 -2.74 0.36668 -3.98 1.06 c-1.2133 0.70666 -2.18 1.6867 -2.9 2.94 l0.58 0.32 c0.65334 -1.16 1.54 -2.06 2.66 -2.7 c1.1067 -0.64 2.32 -0.96666 3.64 -0.98 c2.1334 0.01334 3.9066 0.72668 5.32 2.14 c1.4133 1.3867 2.1266 3.1066 2.14 5.16 c0 1.0267 -0.18 1.9433 -0.54 2.75 s-0.88666 1.5633 -1.58 2.27 c-1.4267 1.4267 -3.1666 2.14 -5.22 2.14 c-1.28 0 -2.44 -0.27334 -3.48 -0.82 l-0.3 0.58 c1.1333 0.58666 2.3934 0.88 3.78 0.88 z M47.06 15.219999999999999 c0.85334 -0.48 1.5067 -1.1567 1.96 -2.03 s0.68 -1.8633 0.68 -2.97 l0 -0.28 c0 -1.64 -0.49 -3 -1.47 -4.08 s-2.3766 -1.62 -4.19 -1.62 l-1.38 0 l0 6.34 c0.22666 0.01334 0.45332 0.02 0.67998 0.02 l0 -5.72 l0.66 0 c1.64 0 2.88 0.47666 3.72 1.43 s1.26 2.1766 1.26 3.67 l0 0.22 c0 1.48 -0.42 2.6934 -1.26 3.64 s-2.08 1.42 -3.72 1.42 l-0.66 0 l0 0 l-0.68 0 l0 0.64 c0.4 0.01334 0.66666 0.02 0.8 0.02 l0.58 0 c0.92 0 1.7267 -0.14 2.42 -0.42 l2.48 4.5 l0.8 0 z M64.28 19.96 l0.039942 -0.63998 c-1.96 -0.13334 -3.52 -0.94668 -4.68 -2.44 c-1.1067 -1.3867 -1.66 -3.06 -1.66 -5.02 c0 -1.0267 0.16666 -1.9167 0.5 -2.67 s0.83334 -1.4833 1.5 -2.19 c1.3333 -1.4 3 -2.1 5 -2.1 c1.2133 0 2.3066 0.26 3.28 0.78 s1.7667 1.2467 2.38 2.18 l0.48 -0.38 c-0.66666 -1.0133 -1.5333 -1.8067 -2.6 -2.38 c-1.0133 -0.54666 -2.16 -0.81332 -3.44 -0.79998 c-1.08 0 -2.0934 0.18334 -3.04 0.55 s-1.78 0.93 -2.5 1.69 c-0.72 0.77334 -1.2633 1.5733 -1.63 2.4 s-0.55 1.8 -0.55 2.92 c0.01334 2.12 0.62 3.9334 1.82 5.44 c1.28 1.6133 2.98 2.5 5.1 2.66 z M65.5 19.98002 c1.0933 -0.06666 2.0934 -0.32664 3 -0.77998 c1.04 -0.53334 1.9133 -1.2867 2.62 -2.26 l-0.46 -0.4 c-0.64 0.88 -1.4467 1.5733 -2.42 2.08 c-0.84 0.42666 -1.76 0.66666 -2.76 0.72 z M77.92000000000002 15.219999999999999 c0.85334 -0.48 1.5067 -1.1567 1.96 -2.03 s0.68 -1.8633 0.68 -2.97 l0 -0.28 c0 -1.64 -0.49 -3 -1.47 -4.08 s-2.3766 -1.62 -4.19 -1.62 l-1.38 0 l0 6.34 c0.22666 0.01334 0.45332 0.02 0.67998 0.02 l0 -5.72 l0.66 0 c1.64 0 2.88 0.47666 3.72 1.43 s1.26 2.1766 1.26 3.67 l0 0.22 c0 1.48 -0.42 2.6934 -1.26 3.64 s-2.08 1.42 -3.72 1.42 l-0.66 0 l0 0 l-0.68 0 l0 0.64 c0.4 0.01334 0.66666 0.02 0.8 0.02 l0.58 0 c0.92 0 1.7267 -0.14 2.42 -0.42 l2.48 4.5 l0.8 0 z M91.94000000000001 4.26 l0 10.64 c0 1.4 -0.37 2.48 -1.11 3.24 s-1.6233 1.1733 -2.65 1.24 l0 0.25 l0 0.07 l0 0.3 c1.28 -0.08 2.3066 -0.55334 3.08 -1.42 s1.16 -2.0934 1.16 -3.68 l0 -10.64 l-0.48 0 z M87.44000000000001 19.39998 c-1.04 -0.08 -1.9067 -0.5 -2.6 -1.26 s-1.04 -1.84 -1.04 -3.24 l0 -10.64 l-0.6 0 l0 10.64 c0 1.6 0.38334 2.83 1.15 3.69 s1.7967 1.33 3.09 1.41 l0 -0.29 l0 -0.31 z M96.86000000000001 19.26 l-0.84 -0.000039062 l7.52 -14.92 l0 -0.1 l-1.68 0 c0 0.13334 -0.0033398 0.27668 -0.01 0.43002 s-0.01 0.25668 -0.01 0.31002 l0.7 0 l-7.52 14.9 l0 0.12 l1.84 0 l0 -0.74 z M98.24000000000001 4.24 l-1.08 0 l0 0.74 l1.08 0 l0 -0.33 l0 -0.41 z M101.10000000000001 19.25996 l0 0.74 l1.02 0 l0 -0.74 l-1.02 0 z"></path></g>
			</g>
		</svg>
	